<?xml version="1.0" standalone="no"?>
<!DOCTYPE svg PUBLIC "-//W3C//DTD SVG 20010904//EN"
 "http://www.w3.org/TR/2001/REC-SVG-20010904/DTD/svg10.dtd">
<svg version="1.0" xmlns="http://www.w3.org/2000/svg"
 width="560.000000pt" height="445.000000pt" viewBox="0 0 560.000000 445.000000"
 preserveAspectRatio="xMidYMid meet">

<g transform="translate(0.000000,445.000000) scale(0.100000,-0.100000)"
fill="#e61e2a" stroke="none">
<path d="M1665 4170 c-110 -25 -166 -45 -270 -97 -131 -66 -190 -108 -285
-203 -142 -142 -252 -328 -302 -510 -21 -77 -23 -105 -23 -300 1 -210 1 -218
34 -344 51 -201 121 -375 214 -534 32 -55 34 -62 17 -62 -10 0 -21 4 -24 9 -3
4 -57 25 -119 45 -63 20 -121 44 -129 54 -9 9 -23 43 -32 75 -29 102 -108 167
-202 167 -147 0 -281 -131 -324 -319 -34 -145 23 -305 152 -427 241 -227 784
-466 1316 -580 87 -18 90 -26 13 -39 -126 -21 -259 -93 -357 -193 -116 -119
-164 -262 -132 -387 21 -79 47 -120 106 -165 38 -29 54 -35 109 -38 40 -3 69
0 76 7 8 8 2 11 -24 11 -75 1 -155 59 -193 140 -33 72 -28 160 14 238 43 80
149 181 238 226 127 64 166 71 377 71 173 0 201 -3 315 -29 69 -15 132 -32
140 -37 9 -5 -33 -9 -105 -9 -208 -1 -302 -32 -501 -167 -108 -72 -115 -75
-181 -80 -125 -8 -140 -19 -75 -52 83 -42 189 -54 297 -31 30 6 107 37 169 69
142 72 224 106 301 125 57 14 240 32 388 38 38 1 71 6 73 10 2 3 -18 21 -46
39 -35 22 -50 39 -50 54 0 33 -36 60 -145 109 -180 79 -199 88 -290 139 -192
108 -567 378 -532 385 8 2 37 -1 64 -6 143 -29 374 -72 414 -77 58 -9 81 -24
154 -105 75 -84 197 -211 362 -379 129 -132 131 -134 155 -119 12 9 153 143
312 299 258 254 293 285 330 292 22 4 70 14 106 22 210 47 404 85 413 82 6 -2
-43 -47 -109 -101 -264 -215 -516 -363 -752 -442 -100 -34 -138 -57 -145 -92
-4 -16 -20 -36 -41 -49 -18 -12 -40 -35 -48 -51 -15 -29 -14 -30 49 -102 66
-77 96 -121 156 -230 51 -94 109 -162 185 -220 86 -64 97 -65 86 -2 -5 26 -9
74 -9 107 l0 60 60 32 c33 17 60 37 60 43 0 21 -414 259 -495 284 l-75 24 85
-4 c404 -23 425 -27 670 -144 91 -43 186 -83 212 -89 66 -15 155 -14 216 4 54
16 119 63 105 75 -4 4 -47 10 -94 12 -95 5 -120 16 -233 102 -164 123 -298
154 -586 132 -83 -6 -112 -5 -105 3 6 6 33 15 60 20 28 6 104 22 170 36 93 21
159 28 295 32 157 5 184 3 260 -16 124 -31 202 -73 280 -150 92 -91 125 -161
125 -261 -1 -57 -6 -86 -24 -122 -30 -62 -90 -113 -152 -129 -31 -8 -45 -16
-37 -21 36 -23 119 3 176 55 144 133 124 384 -44 551 -102 101 -239 169 -373
182 -34 4 -61 10 -61 14 0 4 28 13 63 20 92 17 322 82 482 135 518 172 875
391 976 600 33 68 34 73 34 190 -1 108 -3 126 -27 178 -57 121 -181 217 -284
217 -106 0 -176 -55 -212 -167 -25 -80 -38 -90 -155 -122 -42 -12 -93 -29
-113 -37 -20 -8 -38 -13 -40 -11 -3 2 16 40 42 83 106 179 189 389 219 559 35
195 30 442 -12 595 -100 370 -361 650 -709 765 -122 41 -215 55 -353 55 -182
0 -316 -35 -506 -132 -146 -75 -307 -215 -391 -343 -20 -30 -42 -55 -49 -55
-7 0 -31 28 -53 63 -149 228 -407 399 -682 451 -113 22 -311 20 -415 -4z m367
-55 c89 -15 254 -67 272 -85 7 -7 -1 -33 -29 -85 -72 -134 -32 -136 -338 14
-147 72 -267 135 -267 140 0 12 110 28 201 30 42 0 115 -6 161 -14z m1928 -11
c12 -12 -505 -268 -525 -261 -13 6 -85 151 -85 172 0 8 12 21 28 29 33 17 161
55 222 67 62 11 347 6 360 -7z m-2086 -159 c146 -71 266 -133 266 -137 0 -14
-636 -318 -664 -318 -15 0 -16 -6 38 300 39 218 60 293 81 288 7 -2 132 -61
279 -133z m2186 63 c7 -40 28 -156 47 -258 43 -226 49 -280 35 -280 -10 0
-112 54 -476 254 -76 42 -142 76 -147 76 -5 0 -9 6 -8 13 0 12 491 263 521
266 13 1 19 -14 28 -71z m170 10 c198 -107 341 -250 441 -442 29 -56 38 -81
29 -86 -11 -7 -307 -24 -435 -25 l-60 0 -8 35 c-10 46 -107 560 -107 566 0 13
72 -12 140 -48z m-2717 -5 c-14 -96 -101 -544 -106 -549 -9 -9 -460 16 -470
26 -11 10 70 155 128 230 87 113 215 220 350 292 92 49 105 49 98 1z m922 -49
c38 -26 91 -65 117 -88 74 -63 219 -249 205 -263 -7 -7 -486 184 -505 201 -10
10 -2 31 39 104 28 51 57 92 63 92 7 0 43 -21 81 -46z m921 -45 c35 -70 43
-94 33 -100 -7 -4 -92 -40 -189 -80 -96 -39 -209 -87 -250 -105 -41 -18 -77
-29 -78 -23 -9 25 155 212 248 283 61 47 170 116 182 116 4 0 28 -41 54 -91z
m144 -150 c31 -19 160 -92 360 -203 36 -20 101 -55 145 -77 89 -46 90 -47 83
-54 -5 -6 -335 -64 -408 -72 -32 -4 -49 -1 -57 8 -22 28 -173 384 -173 410 0
14 12 11 50 -12z m-45 -89 c15 -41 47 -119 71 -172 23 -53 40 -99 37 -101 -4
-5 -127 26 -413 104 -63 17 -137 37 -163 43 -26 6 -47 16 -45 21 1 6 66 36
143 69 77 32 181 76 230 96 68 29 93 36 101 27 6 -7 23 -46 39 -87z m-990 -5
c125 -52 230 -97 233 -100 3 -2 -1 -7 -9 -9 -148 -47 -622 -186 -625 -183 -3
2 8 33 24 68 15 35 50 121 77 192 26 70 53 127 60 127 6 0 114 -43 240 -95z
m-299 59 c-15 -57 -148 -383 -161 -394 -12 -10 -50 -4 -182 28 -93 22 -195 46
-228 53 -93 19 -97 25 -40 50 107 47 425 198 510 242 50 26 94 47 99 47 4 0 5
-12 2 -26z m1019 -281 c182 -50 349 -96 373 -103 32 -8 47 -18 55 -38 14 -32
82 -145 229 -380 59 -95 108 -174 108 -177 0 -2 -13 -25 -29 -52 -31 -50 -314
-540 -342 -590 -9 -16 -72 -72 -140 -123 -382 -291 -604 -450 -628 -450 -19 0
-30 7 -276 189 -307 226 -471 349 -482 363 -6 7 -42 69 -80 138 -39 69 -118
209 -176 311 -59 103 -107 195 -107 205 1 18 293 498 338 554 14 19 49 34 133
59 296 87 566 170 589 180 42 18 93 8 435 -86z m-1972 -29 c118 -5 170 -11
174 -19 4 -12 -181 -482 -197 -499 -4 -4 -27 32 -50 80 -138 290 -200 427
-200 441 0 13 9 15 53 10 28 -4 128 -10 220 -13z m3507 11 c0 -3 -38 -77 -84
-163 -46 -86 -107 -203 -136 -260 -28 -57 -56 -102 -62 -100 -12 4 -232 493
-225 499 14 12 507 34 507 24z m-3128 -61 c221 -51 353 -85 360 -92 6 -6 -257
-441 -282 -466 -6 -6 -11 -4 -14 5 -6 22 -184 542 -191 562 -9 22 -7 22 127
-9z m-662 -37 c0 -4 52 -117 115 -250 l115 -244 -89 -186 c-50 -103 -95 -187
-100 -187 -11 0 -59 149 -90 280 -44 182 -51 403 -17 556 18 84 24 92 47 63
10 -13 19 -27 19 -32z m3217 31 c-2 -13 -34 -117 -70 -233 -36 -115 -73 -236
-82 -267 -9 -32 -19 -58 -23 -58 -12 1 -304 480 -300 492 4 11 380 83 452 87
24 1 28 -2 23 -21z m619 -50 c21 -92 29 -335 15 -443 -21 -161 -100 -420 -125
-413 -6 2 -53 89 -105 193 l-93 190 132 260 c135 263 149 289 158 281 2 -3 11
-33 18 -68z m-3278 -125 c33 -98 79 -236 102 -306 l43 -128 -86 -202 c-47
-111 -91 -215 -97 -231 -6 -17 -14 -25 -19 -20 -5 5 -57 129 -116 276 l-107
266 103 261 c57 144 106 261 110 261 3 0 33 -80 67 -177z m2733 100 c78 -172
181 -417 181 -432 1 -9 -22 -77 -50 -152 -29 -75 -73 -200 -99 -278 -27 -77
-51 -141 -54 -141 -4 0 -27 51 -52 113 -25 61 -66 161 -91 222 -25 60 -46 121
-46 136 0 14 24 104 54 200 29 96 68 225 87 287 18 61 35 112 37 112 1 0 17
-30 33 -67z m316 -677 c69 -138 89 -187 80 -194 -23 -19 -354 -182 -370 -182
-15 0 16 100 137 435 20 55 38 106 41 113 2 6 8 12 12 12 5 0 50 -83 100 -184z
m-3249 -84 c56 -142 102 -261 102 -265 0 -14 -30 -5 -161 47 -217 88 -229 94
-229 114 0 23 166 362 178 362 4 0 54 -116 110 -258z m2741 51 c75 -181 133
-335 127 -341 -6 -6 -488 -142 -528 -149 -34 -6 -34 -3 -5 45 13 20 48 80 77
132 30 52 72 127 95 165 23 39 70 118 105 178 35 59 67 104 71 100 4 -5 30
-63 58 -130z m-2331 75 c16 -29 80 -140 141 -246 61 -107 111 -195 111 -198 0
-2 14 -26 31 -54 17 -28 29 -54 25 -57 -7 -7 -505 144 -523 159 -14 11 -9 24
99 281 39 92 75 167 79 167 4 0 21 -24 37 -52z m-1090 -284 c50 -35 64 -103
36 -174 -14 -33 -14 -45 -4 -70 21 -51 65 -70 162 -70 175 0 226 -42 288 -240
22 -69 56 -154 77 -189 45 -76 130 -171 209 -232 31 -24 51 -45 45 -47 -17 -6
-155 45 -242 88 -85 42 -254 142 -344 203 -167 113 -354 306 -415 430 -29 60
-32 73 -29 139 5 82 27 125 83 159 38 23 103 25 134 3z m3977 -82 c-63 -117
-141 -232 -235 -344 -88 -105 -277 -295 -285 -287 -2 3 4 32 14 65 11 32 42
140 71 239 28 99 55 190 60 202 7 16 67 51 207 122 109 54 202 97 206 94 4 -3
-13 -44 -38 -91z m580 67 c109 -96 90 -234 -57 -414 -159 -194 -336 -325 -643
-475 -234 -115 -246 -118 -169 -43 121 116 183 217 232 373 64 208 120 260
279 260 101 0 147 13 173 49 24 35 25 52 4 111 -20 58 -11 106 28 142 44 41
104 40 153 -3z m-3944 -71 l177 -73 79 -270 c44 -148 76 -272 70 -274 -23 -9
-295 287 -385 421 -63 93 -152 250 -152 267 0 17 -1 17 211 -71z m270 -86 c37
-24 693 -672 687 -678 -7 -7 -569 103 -577 113 -4 4 -20 53 -35 108 -16 55
-50 172 -76 260 -65 218 -64 215 -43 215 10 0 30 -8 44 -18z m137 -36 c15 -7
108 -37 207 -66 99 -29 185 -58 191 -64 6 -6 30 -69 54 -141 23 -71 56 -163
71 -203 16 -40 29 -77 29 -84 0 -6 -21 9 -47 32 -63 57 -543 531 -543 536 0 7
10 4 38 -10z m2462 -22 c-18 -15 -37 -33 -44 -38 -25 -24 -514 -465 -549 -496
-21 -18 -40 -30 -43 -28 -5 5 64 251 108 383 20 60 27 70 53 77 300 81 501
134 504 132 2 -2 -11 -15 -29 -30z m84 -6 c-4 -13 -39 -131 -78 -263 l-71
-239 -140 -32 c-197 -46 -403 -86 -421 -82 -10 2 5 20 43 51 32 27 108 95 169
152 61 58 152 139 201 182 49 43 133 117 187 166 54 48 102 87 108 87 5 0 6
-9 2 -22z m-669 -250 c-23 -73 -57 -186 -75 -250 l-33 -118 -264 0 c-152 0
-263 4 -263 9 0 5 30 31 68 57 117 83 513 377 565 421 16 13 32 21 37 18 4 -3
-11 -64 -35 -137z m-1084 -109 c181 -133 329 -246 329 -250 0 -11 -227 -12
-387 -2 l-111 6 -37 96 c-52 135 -135 370 -135 382 0 5 3 9 6 9 4 0 154 -109
335 -241z m918 -306 c21 -5 -6 -35 -250 -279 -151 -151 -279 -274 -286 -274
-6 0 -58 53 -115 117 -97 111 -191 214 -333 363 -34 36 -65 71 -70 79 -7 12
67 13 511 7 285 -4 530 -10 543 -13z"/>
<path d="M3093 3255 c-92 -28 -199 -119 -242 -204 -12 -23 -25 -41 -29 -41 -4
0 -22 23 -41 50 -75 111 -255 200 -403 200 -170 0 -310 -136 -355 -344 -51
-238 93 -531 392 -798 122 -109 268 -223 332 -259 54 -30 43 -37 275 162 384
329 563 565 608 803 23 123 -8 230 -92 322 -85 93 -164 124 -307 123 -53 0
-115 -6 -138 -14z m-230 -437 c-4 -13 -8 -117 -8 -233 0 -115 4 -220 8 -232 8
-22 6 -23 -53 -23 -59 0 -61 1 -53 23 4 12 8 117 8 232 0 116 -4 220 -8 233
-8 21 -6 22 53 22 59 0 61 -1 53 -22z"/>
<path d="M945 1145 c-31 -89 -33 -92 -114 -118 l-76 -24 71 -21 c62 -19 73
-26 92 -61 12 -21 22 -48 22 -59 0 -12 5 -24 10 -27 6 -3 10 3 10 14 0 35 29
96 53 110 12 8 42 19 67 26 25 6 43 16 40 21 -3 5 -31 18 -64 28 -51 17 -60
24 -73 55 -7 20 -18 45 -22 56 l-9 20 -7 -20z"/>
<path d="M4656 1111 c-18 -52 -29 -60 -116 -90 -57 -20 -56 -22 17 -41 58 -15
82 -37 102 -97 l18 -52 24 62 c24 62 24 62 87 83 34 12 65 23 68 26 3 3 -21
14 -53 23 -67 20 -99 50 -109 100 -3 19 -9 35 -13 35 -4 0 -15 -22 -25 -49z"/>
<path d="M2669 820 c-31 -9 -197 -100 -317 -174 -48 -29 -107 -64 -132 -76
l-45 -23 45 -19 c88 -38 92 -52 62 -201 -10 -48 -16 -89 -14 -91 2 -2 27 10
55 27 84 51 185 161 251 272 32 55 87 139 122 186 35 48 64 91 64 98 0 12 -51
13 -91 1z"/>
<path d="M2766 748 c-110 -126 -136 -232 -83 -340 24 -48 118 -169 137 -176
11 -4 121 130 147 181 36 69 31 135 -18 232 -39 79 -101 155 -125 155 -7 0
-33 -23 -58 -52z"/>
</g>
</svg>
